/* XPM */
static char *kst[]={
"32 32 9 1",
". c None",
"# c #000000",
"g c #0000ff",
"a c #585858",
"c c #808080",
"e c #a0a0a0",
"d c #e8fde9",
"f c #ff0000",
"b c #ffffff",
"..................#.............",
"................###a............",
"..............##bbb#a...........",
"............##bbbbb#a...........",
".......#####bbbbbbbb#a#######...",
".......###bbbbbbccbb#abbbbbb#c..",
"......##bbbbbbccddcbb#abbbbb#c..",
"....##bbbbbbccdcdccbb#aeeebb#c..",
"..##bbbbbbccdcdddddcbb#adebb#c..",
"##bbbbbbccdcddddddccbb#adebb#c..",
"#bbbbbccdcddddddddffcbb#aebb#c..",
".#bbccdcdddddddffffccbb#aebb#c..",
".#bbcdddddffffffdddddcbb#abb#c..",
"..#bbccdddfdddddddddccbb#abb#c..",
"..#bbcddddfdddddddccddcbb#ab#c..",
"...#bbccddfdddddccdddccbb#ab#c..",
"...#bbcddffdddccdddddddcbb#a#c..",
"....#bbccfddccddddddddccbb#a#c..",
"....#bbcdfccdddddddggdddcbb#ac..",
".....#bbccddddddddgddggccbb#ac..",
".....#bbcddggddddgdddddddcbb#a..",
"......#bbccddgdddgdddcdccbbb#a..",
"......#bbcddddgggddcdccbbbbbb#a.",
".......#bbccdddddcdccbbbbbb##aa.",
".......#bbcddddcdccbbbbbb##aac..",
".......##bbccddccbbbbbb##aab#c..",
".......##bbcdccbbbbbb##aabbb#c..",
".......#b#bbcbbbbbb##aabbbbb#c..",
".......###bbbbbbb##aa########c..",
"........cc#bbbb##aaccccccccccc..",
"..........#bb##aa...............",
"...........##aa................."};
